<svg width="26" height="22" viewBox="0 0 26 22" fill="none" xmlns="http://www.w3.org/2000/svg">
<path d="M21.9375 5C21.7194 4.62215 21.4061 4.30798 21.029 4.08869C20.6518 3.8694 20.2238 3.75263 19.7875 3.75H16.75V1.25C16.75 0.918479 16.6183 0.600537 16.3839 0.366117C16.1495 0.131696 15.8315 0 15.5 0H3C2.33696 0 1.70107 0.263392 1.23223 0.732233C0.763392 1.20107 0.5 1.83696 0.5 2.5V15C0.50045 15.4384 0.616178 15.869 0.835577 16.2485C1.05498 16.6281 1.37033 16.9433 1.75 17.1625C1.70524 18.3228 2.12326 19.4534 2.91208 20.3055C3.70091 21.1576 4.79593 21.6615 5.95625 21.7062C7.11657 21.751 8.24715 21.333 9.09927 20.5442C9.95139 19.7553 10.4552 18.6603 10.5 17.5H14.375C14.5132 18.5459 15.0268 19.5059 15.8202 20.2013C16.6135 20.8967 17.6325 21.28 18.6875 21.28C19.7425 21.28 20.7615 20.8967 21.5548 20.2013C22.3482 19.5059 22.8618 18.5459 23 17.5C23.663 17.5 24.2989 17.2366 24.7678 16.7678C25.2366 16.2989 25.5 15.663 25.5 15V11.25C25.498 11.022 25.4378 10.7982 25.325 10.6L21.9375 5ZM16.75 6.25H19.7875L22.0375 10H16.75V6.25ZM6.125 18.75C5.75416 18.75 5.39165 18.64 5.08331 18.434C4.77496 18.228 4.53464 17.9351 4.39273 17.5925C4.25081 17.2499 4.21368 16.8729 4.28603 16.5092C4.35837 16.1455 4.53695 15.8114 4.79917 15.5492C5.0614 15.287 5.39549 15.1084 5.75921 15.036C6.12292 14.9637 6.49992 15.0008 6.84253 15.1427C7.18514 15.2846 7.47798 15.525 7.68401 15.8333C7.89003 16.1416 8 16.5042 8 16.875C8 17.3723 7.80246 17.8492 7.45083 18.2008C7.09919 18.5525 6.62228 18.75 6.125 18.75ZM18.625 18.75C18.2542 18.75 17.8916 18.64 17.5833 18.434C17.275 18.228 17.0346 17.9351 16.8927 17.5925C16.7508 17.2499 16.7137 16.8729 16.786 16.5092C16.8584 16.1455 17.037 15.8114 17.2992 15.5492C17.5614 15.287 17.8955 15.1084 18.2592 15.036C18.6229 14.9637 18.9999 15.0008 19.3425 15.1427C19.6851 15.2846 19.978 15.525 20.184 15.8333C20.39 16.1416 20.5 16.5042 20.5 16.875C20.5 17.3723 20.3025 17.8492 19.9508 18.2008C19.5992 18.5525 19.1223 18.75 18.625 18.75Z" fill="#9B622F"/>
</svg>
