<svg width="28" height="19" viewBox="0 0 28 19" fill="none" xmlns="http://www.w3.org/2000/svg">
<path d="M0 16.7222V9.33333H28V16.7222C28 17.2569 27.8096 17.7147 27.4288 18.0955C27.048 18.4763 26.5903 18.6667 26.0556 18.6667H1.94444C1.40972 18.6667 0.951968 18.4763 0.571181 18.0955C0.190394 17.7147 0 17.2569 0 16.7222ZM7.77778 14V15.5556H12.4444V14H7.77778ZM3.11111 14V15.5556H6.22222V14H3.11111ZM26.0556 0C26.5903 0 27.048 0.190393 27.4288 0.57118C27.8096 0.951967 28 1.40972 28 1.94444V4.66667H0V1.94444C0 1.40972 0.190394 0.951967 0.571181 0.57118C0.951968 0.190393 1.40972 0 1.94444 0H26.0556Z" fill="#9B622F"/>
</svg>
