<svg width="32" height="20" viewBox="0 0 32 20" fill="none" xmlns="http://www.w3.org/2000/svg">
<path d="M16.73 8.41292L15.23 9.78742C13.2 11.6479 10.89 10.3829 10.145 9.57292C8.8 8.10292 8.905 5.82792 10.365 4.48792L14.455 0.74292H14.125C11.235 0.74292 8.455 1.89042 6.41 3.93292L1.6 3.94792C0.72 3.94792 0 4.66742 0 5.54692V13.5369C0 14.4164 0.72 15.1389 1.555 15.1389L7.27 15.1359L11.795 19.2269C13.17 20.3454 15.1825 20.1324 16.295 18.7642L17.201 19.5267C17.995 20.1317 19.17 20.0517 19.82 19.2582L21.389 17.3282L21.6577 17.5531C22.3452 18.1031 23.3517 18.0032 23.9077 17.3157L24.3865 16.7242C24.9405 16.0392 24.8354 15.0367 24.1514 14.4812L16.73 8.41292ZM30.4 3.94792L25.6 3.94162C23.551 1.89362 20.772 0.74762 17.875 0.74762L17.445 0.74292C17.045 0.74292 16.664 0.90277 16.364 1.17132L11.45 5.65792L11.44 5.67792C10.6 6.46792 10.62 7.70792 11.33 8.47792C11.8113 9.00292 13.08 9.55892 14.1365 8.61542C14.1365 8.60917 14.149 8.60917 14.1553 8.60292L18.1553 4.94792C18.4803 4.65437 18.9862 4.67312 19.2863 4.99792C19.5863 5.32272 19.5613 5.82892 19.2362 6.12892L17.9303 7.32242L25.2102 13.2274C25.8162 13.727 26.1853 14.4019 26.3163 15.1264L30.4 15.1279C31.28 15.1279 32 14.4089 32 13.5289V5.54792C32 4.66292 31.285 3.94792 30.4 3.94792Z" fill="#9B622F"/>
</svg>
