<svg width="190" height="21" viewBox="0 0 190 21" fill="none" xmlns="http://www.w3.org/2000/svg">
<path d="M15.54 17.788C15.54 18.2733 15.512 19.076 15.456 20.196H15.148C15.036 20.196 14.7653 20.1773 14.336 20.14C13.9067 20.1027 13.4213 20.084 12.88 20.084L1.232 20C0.914667 20 0.756 19.916 0.756 19.748C0.756 19.6173 1.008 19.5333 1.512 19.496C2.22133 19.4587 2.64133 19.384 2.772 19.272C2.92133 19.1413 2.996 18.7867 2.996 18.208V2.472C2.996 1.78133 2.92133 1.38 2.772 1.268C2.64133 1.156 2.14667 1.1 1.288 1.1C0.933333 1.1 0.756 0.997333 0.756 0.791999C0.756 0.623999 0.868 0.539999 1.092 0.539999H1.344C1.96 0.595999 3.18267 0.623999 5.012 0.623999C5.18 0.623999 5.50667 0.614666 5.992 0.595999C6.47733 0.558666 6.87867 0.539999 7.196 0.539999H7.504C7.84 0.539999 8.008 0.633332 8.008 0.819998C8.008 0.931999 7.952 1.00667 7.84 1.044C7.74667 1.06267 7.42933 1.08133 6.888 1.1C6.34667 1.11867 6.02 1.212 5.908 1.38C5.81467 1.52933 5.768 2.01467 5.768 2.836V19.356C6.272 19.3747 6.972 19.384 7.868 19.384C10.052 19.384 11.592 19.272 12.488 19.048C13.384 18.824 13.9907 18.404 14.308 17.788C14.6253 17.172 14.812 16.3413 14.868 15.296C14.8867 15.0533 14.9987 14.932 15.204 14.932C15.4467 14.932 15.5587 15.072 15.54 15.352L15.512 16.052C15.512 16.0893 15.512 16.1733 15.512 16.304C15.5307 16.4347 15.54 16.5653 15.54 16.696V17.788ZM32.9407 15.464C32.9407 15.5387 32.922 15.996 32.8847 16.836C32.8474 17.676 32.8287 18.4787 32.8287 19.244V20.168C30.9994 20.0747 27.378 20.028 21.9647 20.028C21.3114 20.028 20.6674 20.0373 20.0327 20.056C19.398 20.056 18.9687 20.056 18.7447 20.056H18.4647C18.11 20.056 17.9327 19.972 17.9327 19.804C17.9327 19.692 17.9887 19.6267 18.1007 19.608C18.1567 19.608 18.5114 19.58 19.1647 19.524C19.65 19.4867 19.9394 19.384 20.0327 19.216C20.1447 19.048 20.2007 18.6093 20.2007 17.9V2.164C20.2007 1.62267 20.1167 1.30533 19.9487 1.212C19.7994 1.1 19.2954 1.044 18.4367 1.044C18.138 1.044 17.9887 0.959999 17.9887 0.791999C17.9887 0.623999 18.194 0.539999 18.6047 0.539999L23.3927 0.568C23.5607 0.568 24.6154 0.558666 26.5567 0.539999C28.498 0.539999 29.8047 0.539999 30.4767 0.539999C31.0367 0.539999 31.55 0.502665 32.0167 0.427998C32.054 1.23067 32.138 2.34133 32.2687 3.76L32.3807 4.964C32.3994 5.05733 32.4087 5.17867 32.4087 5.328C32.4087 5.51467 32.3247 5.608 32.1567 5.608C31.9514 5.608 31.802 5.37467 31.7087 4.908C31.354 3.228 30.7754 2.164 29.9727 1.716C29.3754 1.38 27.8074 1.212 25.2687 1.212H22.9727V9.416H23.6447C25.7354 9.416 27.0047 9.25733 27.4527 8.94C27.9194 8.62267 28.2367 7.69867 28.4047 6.168C28.442 5.776 28.5447 5.58 28.7127 5.58C28.918 5.58 29.0207 5.748 29.0207 6.084C29.0207 6.42 29.002 6.91467 28.9647 7.568C28.9274 8.22133 28.9087 8.716 28.9087 9.052C28.9087 11.0493 28.946 12.4213 29.0207 13.168C29.0394 13.3547 29.0487 13.5133 29.0487 13.644C29.0487 13.8867 28.946 14.008 28.7407 14.008C28.61 14.008 28.5167 13.9333 28.4607 13.784C28.4234 13.616 28.3487 13.0933 28.2367 12.216C28.0874 11.1147 27.63 10.4333 26.8647 10.172C26.5287 10.06 25.6514 10.004 24.2327 10.004H22.9727V19.412C27.0794 19.412 29.4874 19.328 30.1967 19.16C31.4287 18.88 32.1287 17.6853 32.2967 15.576C32.334 15.1093 32.4554 14.876 32.6607 14.876C32.8474 14.876 32.9407 15.072 32.9407 15.464ZM60.3689 10.312C60.3689 13.5973 59.2209 16.1547 56.9249 17.984C55.2449 19.328 52.9955 20 50.1769 20C50.1022 20 49.7662 19.9907 49.1689 19.972C48.5902 19.9533 47.7409 19.944 46.6209 19.944H45.2209L43.0089 19.972C42.8782 19.9907 42.7382 20 42.5889 20C42.2342 20 42.0569 19.9067 42.0569 19.72C42.0569 19.552 42.3555 19.468 42.9529 19.468C43.7182 19.468 44.1942 19.328 44.3809 19.048C44.4555 18.9173 44.4929 18.5627 44.4929 17.984V2.892C44.4929 1.97733 44.4182 1.44533 44.2689 1.296C44.1382 1.14667 43.6622 1.072 42.8409 1.072C42.4115 1.072 42.1969 0.969332 42.1969 0.763999C42.1969 0.614665 42.3555 0.539999 42.6729 0.539999C42.6542 0.539999 42.8595 0.549332 43.2889 0.568C43.7182 0.586666 44.1382 0.595999 44.5489 0.595999H47.5449C50.9049 0.595999 53.2849 0.829333 54.6849 1.296C56.3835 1.856 57.7555 2.96667 58.8009 4.628C59.8462 6.27067 60.3689 8.16533 60.3689 10.312ZM57.2329 10.2C57.2329 7.10133 56.6262 4.83333 55.4129 3.396C54.1995 1.94 52.3049 1.212 49.7289 1.212C48.4782 1.212 47.7222 1.34267 47.4609 1.604C47.3489 1.73467 47.2929 2.18267 47.2929 2.948V17.844C47.2929 18.3667 47.3022 18.684 47.3209 18.796C47.3582 18.908 47.4422 19.0013 47.5729 19.076C48.0209 19.3 48.9635 19.412 50.4009 19.412C52.4169 19.412 54.0409 18.7027 55.2729 17.284C56.5795 15.7907 57.2329 13.4293 57.2329 10.2ZM71.0038 19.776C71.0038 19.9253 70.8918 20 70.6678 20H70.3878C70.2758 19.944 69.0065 19.916 66.5798 19.916C66.1132 19.916 65.6465 19.9347 65.1798 19.972C64.9372 19.9907 64.5638 20 64.0598 20C63.8172 20 63.6958 19.916 63.6958 19.748C63.6958 19.5987 63.9385 19.5147 64.4238 19.496C65.1705 19.4773 65.6092 19.3933 65.7398 19.244C65.8705 19.076 65.9358 18.5347 65.9358 17.62V2.892C65.9358 1.97733 65.8892 1.464 65.7958 1.352C65.6838 1.16533 65.1705 1.05333 64.2558 1.016C63.9012 0.997333 63.7238 0.922666 63.7238 0.791999C63.7238 0.623999 63.8358 0.539999 64.0598 0.539999L67.8398 0.595999C68.1198 0.595999 68.6612 0.586666 69.4638 0.568L70.5278 0.539999C70.8265 0.539999 70.9758 0.623999 70.9758 0.791999C70.9758 0.941332 70.5652 1.03467 69.7438 1.072C69.2772 1.09067 68.9878 1.17467 68.8758 1.324C68.7825 1.47333 68.7358 1.86533 68.7358 2.5V17.452C68.7358 18.516 68.7825 19.0947 68.8758 19.188C69.0812 19.3933 69.6878 19.5147 70.6958 19.552C70.9012 19.552 71.0038 19.6267 71.0038 19.776ZM91.2605 19.804C91.2605 19.972 91.1205 20.056 90.8405 20.056C90.6539 20.056 90.4859 20.0467 90.3365 20.028L86.7805 19.972L83.2245 20.028C83.0939 20.0467 82.9539 20.056 82.8045 20.056C82.4312 20.056 82.2445 19.9627 82.2445 19.776C82.2445 19.5707 82.4965 19.468 83.0005 19.468C84.6432 19.4493 85.4645 19.2813 85.4645 18.964C85.4645 18.9453 85.4459 18.8707 85.4085 18.74L85.1845 17.984L85.0445 17.592C84.8765 17.0133 84.4659 15.7347 83.8125 13.756H77.8205C76.7005 16.7427 76.1405 18.46 76.1405 18.908C76.1405 19.1693 76.2525 19.328 76.4765 19.384C76.5325 19.4027 76.9992 19.44 77.8765 19.496C78.4179 19.5147 78.6885 19.608 78.6885 19.776C78.6885 19.9627 78.4459 20.056 77.9605 20.056C77.1019 20.056 76.1032 20.0187 74.9645 19.944C74.6845 19.9253 74.3952 19.916 74.0965 19.916C73.7979 19.916 73.5085 19.9347 73.2285 19.972C73.0792 19.9907 72.9579 20 72.8645 20C72.6032 20 72.4725 19.916 72.4725 19.748C72.4725 19.58 72.7619 19.4867 73.3405 19.468C73.9379 19.4493 74.3672 19.3653 74.6285 19.216C74.8899 19.048 75.0952 18.74 75.2445 18.292C77.6525 11.4227 79.6125 5.90667 81.1245 1.744C81.1619 1.52 81.2365 1.268 81.3485 0.987999L81.4885 0.483999C81.5445 0.278666 81.6192 0.176 81.7125 0.176C81.7685 0.176 81.8152 0.232 81.8525 0.343999C82.0952 1.072 82.6459 2.59333 83.5045 4.908C84.1765 6.71867 85.8472 11.264 88.5165 18.544C88.6659 18.9547 88.8525 19.216 89.0765 19.328C89.3192 19.44 89.8045 19.5053 90.5325 19.524C91.0179 19.5427 91.2605 19.636 91.2605 19.804ZM83.6445 13.112C83.3459 12.272 82.8512 10.8813 82.1605 8.94L80.8165 5.104C80.0325 7.15733 79.0899 9.82667 77.9885 13.112H83.6445ZM112.304 19.776C112.304 19.9627 112.108 20.056 111.716 20.056H111.408C111.147 20.056 110.671 20.0467 109.98 20.028C109.29 20.0093 108.758 20 108.384 20C107.824 20 107.171 20.0093 106.424 20.028C105.659 20.028 105.155 20.028 104.912 20.028H104.716C104.324 20.028 104.128 19.944 104.128 19.776C104.128 19.5893 104.399 19.496 104.94 19.496C105.892 19.496 106.471 19.3933 106.676 19.188C106.77 19.0947 106.816 18.4693 106.816 17.312V2.808C106.816 2.82667 106.714 3.15333 106.508 3.788C105.762 6.04667 104.679 9.444 103.26 13.98L101.944 18.432C101.683 19.3093 101.496 19.748 101.384 19.748C101.254 19.748 101.114 19.524 100.964 19.076C100.423 17.3773 98.8923 13.14 96.3723 6.364L95.2523 3.368C95.2709 3.72267 95.2803 4.208 95.2803 4.824V13.924C95.2803 17.34 95.3083 19.0667 95.3643 19.104C95.4949 19.3467 95.9429 19.468 96.7083 19.468C97.3243 19.468 97.6323 19.552 97.6323 19.72C97.6323 19.9067 97.4363 20 97.0443 20C96.8016 20 96.5776 19.9907 96.3723 19.972C96.1109 19.9533 95.8776 19.944 95.6723 19.944L92.4523 20.028C92.1163 20.028 91.9483 19.944 91.9483 19.776C91.9483 19.5893 92.4803 19.4867 93.5443 19.468C93.9923 19.468 94.2536 19.3933 94.3283 19.244C94.4029 19.0947 94.4403 18.6093 94.4403 17.788V4.376C94.4403 2.82667 94.4216 1.98667 94.3843 1.856C94.3096 1.59467 94.1509 1.41733 93.9083 1.324C93.6656 1.23067 93.1429 1.156 92.3403 1.1C92.0416 1.08133 91.8923 0.997332 91.8923 0.848C91.8923 0.642666 92.1629 0.539999 92.7043 0.539999C92.7789 0.539999 92.9376 0.549332 93.1803 0.568H94.6363C95.7376 0.568 96.5123 0.558666 96.9603 0.539999C97.0536 0.782665 97.6043 2.248 98.6123 4.936C99.0416 6.056 100.246 9.32267 102.224 14.736C102.579 13.5227 102.943 12.328 103.316 11.152L106.284 1.884C106.452 1.34267 106.602 0.894665 106.732 0.539999L110.932 0.511999C111.548 0.511999 111.903 0.539999 111.996 0.595999C112.09 0.651999 112.136 0.735999 112.136 0.848C112.136 1.03467 111.978 1.128 111.66 1.128C111.138 1.128 110.783 1.14667 110.596 1.184C110.148 1.25867 109.84 1.408 109.672 1.632C109.579 1.76267 109.532 2.85467 109.532 4.908V17.928C109.532 18.6747 109.607 19.1133 109.756 19.244C109.999 19.412 110.606 19.496 111.576 19.496H111.744C112.118 19.496 112.304 19.5893 112.304 19.776ZM132.909 10.396C132.909 13.1773 132.069 15.5293 130.389 17.452C128.728 19.3747 126.684 20.336 124.257 20.336C121.681 20.336 119.516 19.3653 117.761 17.424C116.006 15.464 115.129 13.056 115.129 10.2C115.129 7.288 115.969 4.908 117.649 3.06C119.348 1.19333 121.513 0.259999 124.145 0.259999C126.628 0.259999 128.709 1.23067 130.389 3.172C132.069 5.11333 132.909 7.52133 132.909 10.396ZM129.773 10.536C129.773 7.12 129.073 4.46 127.673 2.556C126.796 1.36133 125.573 0.763999 124.005 0.763999C122.512 0.763999 121.354 1.22133 120.533 2.136C119.021 3.816 118.265 6.55067 118.265 10.34C118.265 13.3453 118.788 15.6787 119.833 17.34C120.897 19.0013 122.381 19.832 124.285 19.832C126.058 19.832 127.393 19.048 128.289 17.48C129.278 15.744 129.773 13.4293 129.773 10.536ZM153.453 0.819998C153.453 1.00667 153.22 1.09067 152.753 1.072L152.137 1.044H151.633C151.335 1.044 151.157 1.1 151.101 1.212C151.045 1.30533 151.017 1.61333 151.017 2.136V18.264C151.017 19.2533 151.008 19.832 150.989 20C150.971 20.168 150.915 20.252 150.821 20.252C150.709 20.252 150.579 20.1493 150.429 19.944L146.845 14.708C144.773 11.6653 142.253 7.86667 139.285 3.312L139.313 18.936C139.332 19.1787 139.472 19.3373 139.733 19.412C139.995 19.468 140.62 19.5053 141.609 19.524C141.852 19.524 141.973 19.5987 141.973 19.748C141.973 19.9347 141.731 20.028 141.245 20.028C141.077 20.028 140.545 20 139.649 19.944C139.351 19.9253 139.061 19.916 138.781 19.916C138.8 19.916 138.632 19.9347 138.277 19.972C137.941 20.0093 137.419 20.028 136.709 20.028H136.429C136 20.028 135.785 19.944 135.785 19.776C135.785 19.608 135.972 19.524 136.345 19.524C137.447 19.5053 138.081 19.44 138.249 19.328C138.436 19.1973 138.529 18.796 138.529 18.124V4.32C138.529 2.77067 138.212 1.8 137.577 1.408C137.279 1.22133 136.747 1.128 135.981 1.128C135.496 1.128 135.253 1.03467 135.253 0.848C135.253 0.68 135.393 0.595999 135.673 0.595999C136.047 0.595999 136.523 0.605333 137.101 0.623999C137.68 0.642666 137.988 0.651999 138.025 0.651999C138.081 0.651999 138.343 0.642666 138.809 0.623999C139.425 0.623999 140.023 0.614666 140.601 0.595999L150.261 14.96V2.5C150.261 1.92133 150.252 1.576 150.233 1.464C150.215 1.33333 150.14 1.24 150.009 1.184C149.879 1.10933 149.431 1.072 148.665 1.072C147.993 1.072 147.657 0.987998 147.657 0.819998C147.657 0.633332 147.881 0.539999 148.329 0.539999H149.309C149.552 0.539999 149.813 0.539999 150.093 0.539999C150.392 0.558666 150.569 0.568 150.625 0.568C150.644 0.568 150.812 0.558666 151.129 0.539999C151.428 0.539999 151.708 0.539999 151.969 0.539999H152.837C153.248 0.539999 153.453 0.633332 153.453 0.819998ZM174.124 10.312C174.124 13.5973 172.976 16.1547 170.68 17.984C169 19.328 166.751 20 163.932 20C163.858 20 163.522 19.9907 162.924 19.972C162.346 19.9533 161.496 19.944 160.376 19.944H158.976L156.764 19.972C156.634 19.9907 156.494 20 156.344 20C155.99 20 155.812 19.9067 155.812 19.72C155.812 19.552 156.111 19.468 156.708 19.468C157.474 19.468 157.95 19.328 158.136 19.048C158.211 18.9173 158.248 18.5627 158.248 17.984V2.892C158.248 1.97733 158.174 1.44533 158.024 1.296C157.894 1.14667 157.418 1.072 156.596 1.072C156.167 1.072 155.952 0.969332 155.952 0.763999C155.952 0.614665 156.111 0.539999 156.428 0.539999C156.41 0.539999 156.615 0.549332 157.044 0.568C157.474 0.586666 157.894 0.595999 158.304 0.595999H161.3C164.66 0.595999 167.04 0.829333 168.44 1.296C170.139 1.856 171.511 2.96667 172.556 4.628C173.602 6.27067 174.124 8.16533 174.124 10.312ZM170.988 10.2C170.988 7.10133 170.382 4.83333 169.168 3.396C167.955 1.94 166.06 1.212 163.484 1.212C162.234 1.212 161.478 1.34267 161.216 1.604C161.104 1.73467 161.048 2.18267 161.048 2.948V17.844C161.048 18.3667 161.058 18.684 161.076 18.796C161.114 18.908 161.198 19.0013 161.328 19.076C161.776 19.3 162.719 19.412 164.156 19.412C166.172 19.412 167.796 18.7027 169.028 17.284C170.335 15.7907 170.988 13.4293 170.988 10.2ZM189.827 14.54C189.827 16.1453 189.211 17.5173 187.979 18.656C186.766 19.776 185.301 20.336 183.583 20.336C182.575 20.336 181.371 20.028 179.971 19.412C179.598 19.244 179.318 19.16 179.131 19.16C178.907 19.16 178.767 19.4307 178.711 19.972C178.693 20.252 178.571 20.392 178.347 20.392C178.161 20.392 178.067 20.28 178.067 20.056C178.067 19.9067 178.077 19.7947 178.095 19.72C178.245 18.5813 178.319 17.5267 178.319 16.556C178.319 16.3693 178.301 15.8467 178.263 14.988C178.245 14.876 178.235 14.7267 178.235 14.54C178.235 14.26 178.347 14.12 178.571 14.12C178.758 14.12 178.889 14.344 178.963 14.792C179.449 18.1147 181.026 19.776 183.695 19.776C184.834 19.776 185.711 19.4587 186.327 18.824C186.962 18.1707 187.279 17.256 187.279 16.08C187.279 15.0347 186.971 14.148 186.355 13.42C185.758 12.6733 184.722 11.936 183.247 11.208C181.474 10.3307 180.242 9.48133 179.551 8.66C178.861 7.83867 178.515 6.82133 178.515 5.608C178.515 4.05867 179.01 2.78 179.999 1.772C181.007 0.763999 182.277 0.259999 183.807 0.259999C184.442 0.259999 185.319 0.474665 186.439 0.903999C186.831 1.05333 187.121 1.128 187.307 1.128C187.513 1.128 187.643 1.09067 187.699 1.016C187.774 0.941332 187.839 0.745332 187.895 0.427998C187.933 0.241332 188.035 0.147999 188.203 0.147999C188.39 0.147999 188.483 0.259999 188.483 0.483999C188.483 0.633333 188.474 0.745333 188.455 0.819998C188.399 1.268 188.371 1.80933 188.371 2.444C188.371 3.34 188.418 4.04933 188.511 4.572L188.539 5.02C188.558 5.22533 188.474 5.328 188.287 5.328C188.082 5.328 187.942 5.11333 187.867 4.684C187.662 3.58267 187.177 2.668 186.411 1.94C185.646 1.19333 184.787 0.819998 183.835 0.819998C182.902 0.819998 182.155 1.11866 181.595 1.716C181.054 2.31333 180.783 3.12533 180.783 4.152C180.783 5.34667 181.185 6.308 181.987 7.036C182.435 7.44667 183.406 8.02533 184.899 8.772C186.654 9.64933 187.914 10.5453 188.679 11.46C189.445 12.356 189.827 13.3827 189.827 14.54Z" fill="black"/>
</svg>
